<svg width="21" height="21" viewBox="0 0 21 21" fill="none" xmlns="http://www.w3.org/2000/svg">
<path d="M8.4165 3.46876V3.72918H12.5832V3.46876C12.5832 2.91623 12.3637 2.38632 11.973 1.99562C11.5823 1.60492 11.0524 1.38543 10.4998 1.38543C9.9473 1.38543 9.4174 1.60492 9.0267 1.99562C8.636 2.38632 8.4165 2.91623 8.4165 3.46876ZM7.11442 3.72918V3.46876C7.11442 2.57089 7.4711 1.7098 8.10599 1.07491C8.74088 0.44002 9.60197 0.0833435 10.4998 0.0833435C11.3977 0.0833435 12.2588 0.44002 12.8937 1.07491C13.5286 1.7098 13.8853 2.57089 13.8853 3.46876V3.72918H19.7446C19.9173 3.72918 20.0829 3.79777 20.205 3.91986C20.3271 4.04196 20.3957 4.20755 20.3957 4.38022C20.3957 4.55289 20.3271 4.71848 20.205 4.84057C20.0829 4.96267 19.9173 5.03126 19.7446 5.03126H18.2254L17.1837 17.4563C17.1045 18.3998 16.6738 19.2792 15.9768 19.9201C15.2799 20.561 14.3675 20.9167 13.4207 20.9167H7.579C6.63223 20.9166 5.72003 20.5609 5.02317 19.9199C4.32631 19.279 3.89564 18.3997 3.8165 17.4563L2.77484 5.03126H1.25505C1.08238 5.03126 0.916784 4.96267 0.79469 4.84057C0.672596 4.71848 0.604004 4.55289 0.604004 4.38022C0.604004 4.20755 0.672596 4.04196 0.79469 3.91986C0.916784 3.79777 1.08238 3.72918 1.25505 3.72918H7.11442ZM9.19775 8.54689C9.19775 8.46139 9.18091 8.37673 9.1482 8.29774C9.11548 8.21876 9.06752 8.14698 9.00707 8.08653C8.94661 8.02607 8.87484 7.97812 8.79585 7.9454C8.71687 7.91268 8.63221 7.89584 8.54671 7.89584C8.46122 7.89584 8.37656 7.91268 8.29757 7.9454C8.21858 7.97812 8.14681 8.02607 8.08636 8.08653C8.0259 8.14698 7.97795 8.21876 7.94523 8.29774C7.91251 8.37673 7.89567 8.46139 7.89567 8.54689V16.099C7.89567 16.1845 7.91251 16.2691 7.94523 16.3481C7.97795 16.4271 8.0259 16.4989 8.08636 16.5593C8.14681 16.6198 8.21858 16.6677 8.29757 16.7005C8.37656 16.7332 8.46122 16.75 8.54671 16.75C8.63221 16.75 8.71687 16.7332 8.79585 16.7005C8.87484 16.6677 8.94661 16.6198 9.00707 16.5593C9.06752 16.4989 9.11548 16.4271 9.1482 16.3481C9.18091 16.2691 9.19775 16.1845 9.19775 16.099V8.54689ZM12.453 7.89584C12.0936 7.89584 11.8019 8.18751 11.8019 8.54689V16.099C11.8019 16.2716 11.8705 16.4372 11.9926 16.5593C12.1147 16.6814 12.2803 16.75 12.453 16.75C12.6256 16.75 12.7912 16.6814 12.9133 16.5593C13.0354 16.4372 13.104 16.2716 13.104 16.099V8.54689C13.104 8.18751 12.8123 7.89584 12.453 7.89584Z" fill="#5B5B5B"/>
</svg>
